# xmcd
#
# Track frame offsets:
# 182
# 10112
# 24187
# 34687
# 47857
# 57245
# 70260
# 78612
# 89050
# 102460
# 113520
# 123280
#
# Disc length: 1773 seconds
#
#
# Revision: 2
# Processed by: cddbd v1.5PL3 Copyright (c) Steve Scherf et al.
# Submitted via: FreeRIP 2.60 
#
DISCID=9606eb0c
DTITLE=Les Paul and Mary Ford - All-Time Greatest  Hits
DYEAR=1900
DGENRE=
TTITLE0=The World is Waiting for the Sunrise
TTITLE1=Tennessee Waltz
TTITLE2=Mockin' Bird Hill
TTITLE3=I'm a Fool to Care
TTITLE4=Bye Bye Blues
TTITLE5=Vaya Con Dios
TTITLE6=Meet Mr. Callaghan
TTITLE7=I'm Sitting on Top of the World
TTITLE8=Smoke Rings
TTITLE9=My Baby's Coming Home
TTITLE10=In the Good Old Summertime
TTITLE11=Whither Thou Goest
EXTD=
EXTT0=
EXTT1=
EXTT2=
EXTT3=
EXTT4=
EXTT5=
EXTT6=
EXTT7=
EXTT8=
EXTT9=
EXTT10=
EXTT11=
PLAYORDER=
